HIERARCHY
ROOT root
{
  OFFSET 0 93.2929 0
  CHANNELS 6 Xposition Yposition Zposition Zrotation Xrotation Yrotation
  JOINT torso_1
  {
    OFFSET 0 5.07867 -1.15138
    CHANNELS 6 Xposition Yposition Zposition Zrotation Xrotation Yrotation
    JOINT torso_2
    {
      OFFSET 0 5.61661 1.07143
      CHANNELS 6 Xposition Yposition Zposition Zrotation Xrotation Yrotation
      JOINT torso_3
      {
        OFFSET -1.02604e-17 5.98978 0.11501
        CHANNELS 6 Xposition Yposition Zposition Zrotation Xrotation Yrotation
        JOINT torso_4
        {
          OFFSET -1.10457e-17 6.50583 -0.443523
          CHANNELS 6 Xposition Yposition Zposition Zrotation Xrotation Yrotation
          JOINT torso_5
          {
            OFFSET -1.97295e-17 7.60548 -1.50593
            CHANNELS 6 Xposition Yposition Zposition Zrotation Xrotation Yrotation
            JOINT torso_6
            {
              OFFSET -2.53307e-17 9.49737 -0.914492
              CHANNELS 6 Xposition Yposition Zposition Zrotation Xrotation Yrotation
              JOINT torso_7
              {
                OFFSET -2.90401e-17 10.5513 1.57691
                CHANNELS 6 Xposition Yposition Zposition Zrotation Xrotation Yrotation
                JOINT neck_1
                {
                  OFFSET -1.29193e-17 4.78644 0.715339
                  CHANNELS 6 Xposition Yposition Zposition Zrotation Xrotation Yrotation
                  JOINT neck_2
                  {
                    OFFSET -1.8116e-17 4.82109 0.421791
                    CHANNELS 6 Xposition Yposition Zposition Zrotation Xrotation Yrotation
                    JOINT head
                    {
                      OFFSET -2.00958e-17 4.83041 0.765062
                      CHANNELS 6 Xposition Yposition Zposition Zrotation Xrotation Yrotation
                      End Site
                      {
                        OFFSET 0 0.1 0
                      }
                    }
                  }
                }
                JOINT l_shoulder
                {
                  OFFSET 1.23299 -7.60731 7.53374
                  CHANNELS 6 Xposition Yposition Zposition Zrotation Xrotation Yrotation
                  JOINT l_up_arm
                  {
                    OFFSET 12.9547 3.2495 -3.26872
                    CHANNELS 6 Xposition Yposition Zposition Zrotation Xrotation Yrotation
                    JOINT l_low_arm
                    {
                      OFFSET 29.2081 0.0598081 0.137039
                      CHANNELS 6 Xposition Yposition Zposition Zrotation Xrotation Yrotation
                      JOINT l_hand
                      {
                        OFFSET 24.234 0.0496219 0.113701
                        CHANNELS 6 Xposition Yposition Zposition Zrotation Xrotation Yrotation
                        End Site
                        {
                          OFFSET 0.1 0 0
                        }
                      }
                    }
                  }
                }
                JOINT r_shoulder
                {
                  OFFSET -1.23299 -7.60729 7.53365
                  CHANNELS 6 Xposition Yposition Zposition Zrotation Xrotation Yrotation
                  JOINT r_up_arm
                  {
                    OFFSET -12.9547 3.2495 -3.26872
                    CHANNELS 6 Xposition Yposition Zposition Zrotation Xrotation Yrotation
                    JOINT r_low_arm
                    {
                      OFFSET -29.2081 0.0598081 0.137039
                      CHANNELS 6 Xposition Yposition Zposition Zrotation Xrotation Yrotation
                      JOINT r_hand
                      {
                        OFFSET -24.234 0.0496218 0.113702
                        CHANNELS 6 Xposition Yposition Zposition Zrotation Xrotation Yrotation
                        End Site
                        {
                          OFFSET -0.1 0 0
                        }
                      }
                    }
                  }
                }
              }
            }
          }
        }
      }
    }
  }
  JOINT l_up_leg
  {
    OFFSET 9.23673 -4.20556 2.0327
    CHANNELS 6 Xposition Yposition Zposition Zrotation Xrotation Yrotation
    JOINT l_low_leg
    {
      OFFSET -0.852353 -38.7721 -0.655187
      CHANNELS 6 Xposition Yposition Zposition Zrotation Xrotation Yrotation
      JOINT l_foot
      {
        OFFSET -2.32622 -40.4017 -6.04875
        CHANNELS 6 Xposition Yposition Zposition Zrotation Xrotation Yrotation
        JOINT l_toes
        {
          OFFSET 0.779096 -9.8844 12.4959
          CHANNELS 6 Xposition Yposition Zposition Zrotation Xrotation Yrotation
          End Site
          {
            OFFSET 0 0 0.1
          }
        }
      }
    }
  }
  JOINT r_up_leg
  {
    OFFSET -9.23673 -4.20556 2.0327
    CHANNELS 6 Xposition Yposition Zposition Zrotation Xrotation Yrotation
    JOINT r_low_leg
    {
      OFFSET 0.852353 -38.7721 -0.655187
      CHANNELS 6 Xposition Yposition Zposition Zrotation Xrotation Yrotation
      JOINT r_foot
      {
        OFFSET 2.32622 -40.4017 -6.04875
        CHANNELS 6 Xposition Yposition Zposition Zrotation Xrotation Yrotation
        JOINT r_toes
        {
          OFFSET -0.779096 -9.8844 12.4959
          CHANNELS 6 Xposition Yposition Zposition Zrotation Xrotation Yrotation
          End Site
          {
            OFFSET 0 0 0.1
          }
        }
      }
    }
  }
}
MOTION
Frames: 6
Frame Time: 0.016667
319.615 106.537 1000.01 -2.34115 -2.55371 93.7255 0 5.07867 -1.15138 -0.477642 4.11733 -1.85339 0 5.61661 1.07143 0.072932 3.38912 -1.72726 -1.02604e-17 5.98978 0.11501 0.196248 2.53593 -1.61558 -1.10457e-17 6.50583 -0.443523 0.186221 0.635657 -1.58411 -1.97295e-17 7.60548 -1.50593 -0.0883317 -0.829718 -1.57408 -2.53307e-17 9.49737 -0.914492 -0.50403 -1.67266 -1.31886 -2.90401e-17 10.5513 1.57691 -0.609333 1.27877 0.910926 -1.29193e-17 4.78644 0.715339 -0.335644 -0.871909 7.14167 -1.8116e-17 4.82109 0.421791 -1.2247 -9.26039 3.2444 -2.00958e-17 4.83041 0.765062 -3.42288 -13.6004 0.868717 1.23299 -7.60731 7.53374 15.9365 -1.44537 4.30684 12.9547 3.2495 -3.26872 -71.814 10.1536 -30.5473 29.2081 0.0598081 0.137039 10.2399 -18.1014 -121.879 24.234 0.0496219 0.113701 3.48006 -42.5895 -2.15273 -1.23299 -7.60729 7.53365 0.180023 9.21905 0.939037 -12.9547 3.2495 -3.26872 84.322 -7.38172 -21.0822 -29.2081 0.0598081 0.137039 -2.27804 -0.20822 11.0415 -24.234 0.0496218 0.113702 2.91288 -17.3515 -1.80884 9.23673 -4.20556 2.0327 -4.09375 -8.52489 -14.9578 -0.852353 -38.7721 -0.655187 -2.95984 10.9779 0.0922369 -2.32622 -40.4017 -6.04875 -0.739626 2.74768 14.7978 0.779096 -9.8844 12.4959 -6.74731e-16 -7.02036e-16 -1.61081e-16 -9.23673 -4.20556 2.0327 20.1691 -64.0353 28.3296 0.852353 -38.7721 -0.655187 38.9693 67.9562 -25.3936 2.32622 -40.4017 -6.04875 -6.96207 -10.5987 -15.4024 -0.779096 -9.8844 12.4959 -9.93172e-16 -3.68902e-16 -1.25672e-14 
323.772 106.313 1000.08 -3.1818 -2.09645 94.7011 0 5.07867 -1.15138 -0.653436 3.62438 -1.95055 0 5.61661 1.07143 -0.0456982 3.07864 -1.82848 -1.02604e-17 5.98978 0.11501 0.126649 2.38103 -1.70954 -1.10457e-17 6.50583 -0.443523 0.157826 0.743712 -1.67521 -1.97295e-17 7.60548 -1.50593 -0.0955827 -0.585872 -1.65998 -2.53307e-17 9.49737 -0.914492 -0.506715 -1.29834 -1.40716 -2.90401e-17 10.5513 1.57691 -0.613516 1.24047 0.91916 -1.29193e-17 4.78644 0.715339 -0.325952 -1.48361 6.98797 -1.8116e-17 4.82109 0.421791 -1.31602 -9.24565 3.18985 -2.00958e-17 4.83041 0.765062 -3.36571 -13.7504 1.05367 1.23299 -7.60731 7.53374 15.5117 -1.5659 4.43304 12.9547 3.2495 -3.26872 -70.9835 10.7885 -32.0925 29.2081 0.0598081 0.137039 10.128 -18.271 -122.879 24.234 0.0496219 0.113701 4.1901 -42.0852 -1.55305 -1.23299 -7.60729 7.53365 0.89822 9.32737 1.29595 -12.9547 3.2495 -3.26872 83.3197 -8.29941 -21.5579 -29.2081 0.0598081 0.137039 -2.13691 -0.182314 10.3502 -24.234 0.0496218 0.113702 3.07466 -15.9543 -1.83736 9.23673 -4.20556 2.0327 -4.54144 -9.87476 -14.465 -0.852353 -38.7721 -0.655187 -2.15594 8.02957 0.0109448 -2.32622 -40.4017 -6.04875 -1.41781 6.74453 14.5526 0.779096 -9.8844 12.4959 3.07889e-16 -6.59582e-16 -2.02e-16 -9.23673 -4.20556 2.0327 17.8063 -62.1399 27.849 0.852353 -38.7721 -0.655187 30.6856 63.3606 -17.9344 2.32622 -40.4017 -6.04875 -6.02549 -10.4592 -15.4569 -0.779096 -9.8844 12.4959 -3.39599e-16 -3.9714e-16 -1.25876e-14 
328.199 105.764 1000.12 -3.38315 -1.96709 95.6383 0 5.07867 -1.15138 -0.73047 3.16399 -2.07118 0 5.61661 1.07143 -0.0710515 2.79842 -1.94305 -1.02604e-17 5.98978 0.11501 0.134134 2.26502 -1.81727 -1.10457e-17 6.50583 -0.443523 0.192783 0.912748 -1.77972 -1.97295e-17 7.60548 -1.50593 -0.0617656 -0.280015 -1.7695 -2.53307e-17 9.49737 -0.914492 -0.49291 -0.871217 -1.51971 -2.90401e-17 10.5513 1.57691 -0.614874 1.18626 0.921107 -1.29193e-17 4.78644 0.715339 -0.261586 -1.95356 7.01608 -1.8116e-17 4.82109 0.421791 -1.40887 -9.18527 3.21704 -2.00958e-17 4.83041 0.765062 -3.39792 -13.679 1.30529 1.23299 -7.60731 7.53374 15.0836 -1.74448 4.53431 12.9547 3.2495 -3.26872 -70.2394 11.2293 -33.2348 29.2081 0.0598081 0.137039 10.0607 -18.3699 -123.468 24.234 0.0496219 0.113701 4.70892 -42.0156 -0.916674 -1.23299 -7.60729 7.53365 1.37274 9.38571 1.59572 -12.9547 3.2495 -3.26872 82.5074 -8.57277 -22.1293 -29.2081 0.0598081 0.137039 -1.98633 -0.156606 9.6142 -24.234 0.0496218 0.113702 3.17268 -14.6182 -1.66815 9.23673 -4.20556 2.0327 -4.61399 -10.5117 -14.0113 -0.852353 -38.7721 -0.655187 -1.59434 5.94866 -0.0210778 -2.32622 -40.4017 -6.04875 -1.84807 9.59094 14.3848 0.779096 -9.8844 12.4959 -2.74901e-16 -6.84761e-16 -1.77717e-16 -9.23673 -4.20556 2.0327 15.6051 -59.2398 27.3207 0.852353 -38.7721 -0.655187 24.3325 58.0122 -12.4917 2.32622 -40.4017 -6.04875 -5.00502 -10.5183 -15.4876 -0.779096 -9.8844 12.4959 -7.28126e-16 -3.80354e-16 -1.25755e-14 
332.733 104.874 1000.14 -3.13762 -2.02246 96.5873 0 5.07867 -1.15138 -0.733223 3.03139 -2.22271 0 5.61661 1.07143 -0.0281297 2.73399 -2.0872 -1.02604e-17 5.98978 0.11501 0.195798 2.2437 -1.95489 -1.10457e-17 6.50583 -0.443523 0.268067 0.975877 -1.91609 -1.97295e-17 7.60548 -1.50593 -0.00881585 -0.21134 -1.91593 -2.53307e-17 9.49737 -0.914492 -0.47922 -0.770728 -1.66655 -2.90401e-17 10.5513 1.57691 -0.615386 1.16508 0.921392 -1.29193e-17 4.78644 0.715339 -0.117493 -2.37289 7.33426 -1.8116e-17 4.82109 0.421791 -1.47616 -8.95066 3.36909 -2.00958e-17 4.83041 0.765062 -3.46271 -13.1932 1.51283 1.23299 -7.60731 7.53374 14.6846 -1.74718 4.48428 12.9547 3.2495 -3.26872 -69.5101 11.6143 -33.722 29.2081 0.0598081 0.137039 10.038 -18.4027 -123.664 24.234 0.0496219 0.113701 5.01913 -42.2331 -0.678236 -1.23299 -7.60729 7.53365 1.53047 9.65959 1.9476 -12.9547 3.2495 -3.26872 82.1274 -7.87975 -22.914 -29.2081 0.0598081 0.137039 -1.8498 -0.135013 8.94816 -24.234 0.0496218 0.113702 3.39965 -13.9873 -1.06903 9.23673 -4.20556 2.0327 -4.41375 -10.5153 -13.3175 -0.852353 -38.7721 -0.655187 -1.22913 4.58915 -0.0308888 -2.32622 -40.4017 -6.04875 -1.93795 10.8951 14.2932 0.779096 -9.8844 12.4959 -8.96803e-17 -6.76759e-16 -1.85435e-16 -9.23673 -4.20556 2.0327 13.3949 -55.7628 26.6762 0.852353 -38.7721 -0.655187 19.4656 52.1807 -8.60329 2.32622 -40.4017 -6.04875 -3.87476 -10.9911 -15.4839 -0.779096 -9.8844 12.4959 -8.01169e-16 -3.77198e-16 -1.25732e-14 
337.301 103.704 1000.13 -2.56015 -2.10594 97.5567 0 5.07867 -1.15138 -0.713972 3.22033 -2.39334 0 5.61661 1.07143 0.0345805 2.88527 -2.25259 -1.02604e-17 5.98978 0.11501 0.272483 2.32934 -2.11451 -1.10457e-17 6.50583 -0.443523 0.35351 0.962417 -2.07542 -1.97295e-17 7.60548 -1.50593 0.0470166 -0.342284 -2.08726 -2.53307e-17 9.49737 -0.914492 -0.468652 -0.942228 -1.83746 -2.90401e-17 10.5513 1.57691 -0.616075 1.17119 0.918939 -1.29193e-17 4.78644 0.715339 0.0908261 -2.72425 7.87284 -1.8116e-17 4.82109 0.421791 -1.50715 -8.59782 3.61617 -2.00958e-17 4.83041 0.765062 -3.5153 -12.381 1.67042 1.23299 -7.60731 7.53374 14.2696 -1.58285 4.27662 12.9547 3.2495 -3.26872 -68.7482 12.0626 -33.6128 29.2081 0.0598081 0.137039 10.0497 -18.3858 -123.563 24.234 0.0496219 0.113701 5.06893 -42.67 -0.936402 -1.23299 -7.60729 7.53365 1.4027 10.097 2.34652 -12.9547 3.2495 -3.26872 82.4556 -6.08387 -23.7379 -29.2081 0.0598081 0.137039 -1.73766 -0.118492 8.40199 -24.234 0.0496218 0.113702 3.66857 -14.5206 -0.0515061 9.23673 -4.20556 2.0327 -4.09022 -10.0027 -12.2519 -0.852353 -38.7721 -0.655187 -1.05279 3.93149 -0.0325112 -2.32622 -40.4017 -6.04875 -1.71589 10.9431 14.2443 0.779096 -9.8844 12.4959 6.43717e-16 -6.45073e-16 -2.14636e-16 -9.23673 -4.20556 2.0327 11.0021 -51.8772 25.8387 0.852353 -38.7721 -0.655187 15.597 45.9645 -5.7889 2.32622 -40.4017 -6.04875 -2.72575 -11.9704 -15.4236 -0.779096 -9.8844 12.4959 -2.09341e-16 -4.02767e-16 -1.25957e-14 
341.899 102.321 1000.03 -1.7372 -2.11653 98.4517 0 5.07867 -1.15138 -0.723484 3.55674 -2.55845 0 5.61661 1.07143 0.070039 3.14182 -2.41599 -1.02604e-17 5.98978 0.11501 0.326776 2.49136 -2.27359 -1.10457e-17 6.50583 -0.443523 0.422554 0.974382 -2.23331 -1.97295e-17 7.60548 -1.50593 0.0956033 -0.488726 -2.25734 -2.53307e-17 9.49737 -0.914492 -0.456639 -1.1396 -2.00963 -2.90401e-17 10.5513 1.57691 -0.616408 1.17761 0.910463 -1.29193e-17 4.78644 0.715339 0.332642 -2.95454 8.50573 -1.8116e-17 4.82109 0.421791 -1.49112 -8.26508 3.90666 -2.00958e-17 4.83041 0.765062 -3.51579 -11.4723 1.83132 1.23299 -7.60731 7.53374 13.7563 -1.36476 3.96138 12.9547 3.2495 -3.26872 -67.9494 12.6254 -33.0575 29.2081 0.0598081 0.137039 10.0778 -18.345 -123.319 24.234 0.0496219 0.113701 4.85051 -43.2536 -1.51014 -1.23299 -7.60729 7.53365 1.08184 10.5041 2.72586 -12.9547 3.2495 -3.26872 83.5101 -3.35246 -24.3567 -29.2081 0.0598081 0.137039 -1.65763 -0.107366 8.01259 -24.234 0.0496218 0.113702 3.86445 -16.172 1.14854 9.23673 -4.20556 2.0327 -3.75377 -9.04581 -11.0381 -0.852353 -38.7721 -0.655187 -1.04689 3.90948 -0.0325304 -2.32622 -40.4017 -6.04875 -1.26762 10.1816 14.2227 0.779096 -9.8844 12.4959 9.11025e-16 -6.33524e-16 -2.22989e-16 -9.23673 -4.20556 2.0327 8.43225 -47.6158 24.845 0.852353 -38.7721 -0.655187 12.3625 39.3341 -3.71243 2.32622 -40.4017 -6.04875 -1.63113 -13.421 -15.2836 -0.779096 -9.8844 12.4959 2.72603e-16 -4.2359e-16 -1.26152e-14 
